<svg width="192" height="63" viewBox="0 0 192 63" fill="none" xmlns="http://www.w3.org/2000/svg">
<rect width="191.432" height="62.6011" rx="30" fill="#4D384E"/>
<path d="M75.7436 24.1284L79.2592 35.1795H79.3942L82.9169 24.1284H86.326L81.3118 38.6738H77.3487L72.3274 24.1284H75.7436ZM88.0199 38.6738V27.7647H91.0455V38.6738H88.0199ZM89.5398 26.3585C89.09 26.3585 88.7041 26.2093 88.3821 25.911C88.0649 25.608 87.9062 25.2458 87.9062 24.8244C87.9062 24.4077 88.0649 24.0502 88.3821 23.752C88.7041 23.4489 89.09 23.2974 89.5398 23.2974C89.9896 23.2974 90.3731 23.4489 90.6903 23.752C91.0123 24.0502 91.1733 24.4077 91.1733 24.8244C91.1733 25.2458 91.0123 25.608 90.6903 25.911C90.3731 26.2093 89.9896 26.3585 89.5398 26.3585ZM98.4407 38.8869C97.3185 38.8869 96.3526 38.6596 95.543 38.2051C94.738 37.7458 94.1178 37.0971 93.6822 36.2591C93.2466 35.4163 93.0288 34.4196 93.0288 33.269C93.0288 32.1468 93.2466 31.162 93.6822 30.3145C94.1178 29.4669 94.7309 28.8064 95.5217 28.3329C96.3171 27.8594 97.2499 27.6227 98.32 27.6227C99.0397 27.6227 99.7096 27.7387 100.33 27.9707C100.955 28.198 101.499 28.5413 101.963 29.0005C102.432 29.4598 102.797 30.0375 103.057 30.7335C103.318 31.4248 103.448 32.2344 103.448 33.1625V33.9934H94.2362V32.1184H100.6C100.6 31.6828 100.505 31.2969 100.316 30.9608C100.126 30.6246 99.8635 30.3618 99.5273 30.1724C99.1959 29.9783 98.81 29.8812 98.3697 29.8812C97.9104 29.8812 97.5032 29.9877 97.1481 30.2008C96.7977 30.4091 96.5231 30.6909 96.3242 31.046C96.1254 31.3964 96.0236 31.787 96.0188 32.2179V34.0005C96.0188 34.5403 96.1183 35.0067 96.3171 35.3997C96.5207 35.7927 96.8072 36.0957 97.1765 36.3088C97.5458 36.5218 97.9838 36.6284 98.4904 36.6284C98.8266 36.6284 99.1344 36.581 99.4137 36.4863C99.6931 36.3916 99.9322 36.2496 100.131 36.0602C100.33 35.8708 100.481 35.6388 100.586 35.3642L103.384 35.5488C103.242 36.2212 102.951 36.8083 102.51 37.3102C102.075 37.8074 101.511 38.1956 100.82 38.475C100.133 38.7496 99.3403 38.8869 98.4407 38.8869ZM107.496 38.6738L104.527 27.7647H107.588L109.279 35.0943H109.378L111.14 27.7647H114.144L115.934 35.0517H116.026L117.688 27.7647H120.742L117.78 38.6738H114.577L112.702 31.813H112.567L110.692 38.6738H107.496Z" fill="white"/>
</svg>
